<mxfile host="Electron" modified="2025-07-05T18:07:57.760Z" agent="Mozilla/5.0 (Windows NT 10.0; Win64; x64) AppleWebKit/537.36 (KHTML, like Gecko) draw.io/24.0.4 Chrome/120.0.6099.109 Electron/28.1.0 Safari/537.36" etag="rL2-WJ07Jnk8Y1XZ1n7c" version="24.0.4" type="device">
  <diagram name="Page-1" id="QD_JOMZgq2UKG0qrrXkf">
    <mxGraphModel dx="1276" dy="606" grid="1" gridSize="10" guides="1" tooltips="1" connect="1" arrows="1" fold="1" page="1" pageScale="1" pageWidth="850" pageHeight="1100" math="0" shadow="0">
      <root>
        <mxCell id="0" />
        <mxCell id="1" parent="0" />
        <mxCell id="LiLLFiUzIS2DZXrTLX4k-4" style="edgeStyle=orthogonalEdgeStyle;rounded=0;orthogonalLoop=1;jettySize=auto;html=1;" parent="1" source="LiLLFiUzIS2DZXrTLX4k-1" target="LiLLFiUzIS2DZXrTLX4k-3" edge="1">
          <mxGeometry relative="1" as="geometry" />
        </mxCell>
        <mxCell id="LiLLFiUzIS2DZXrTLX4k-1" value="start" style="ellipse;whiteSpace=wrap;html=1;" parent="1" vertex="1">
          <mxGeometry x="50" y="50" width="120" height="80" as="geometry" />
        </mxCell>
        <mxCell id="LiLLFiUzIS2DZXrTLX4k-2" value="end" style="ellipse;whiteSpace=wrap;html=1;" parent="1" vertex="1">
          <mxGeometry x="520" y="780" width="120" height="80" as="geometry" />
        </mxCell>
        <mxCell id="LiLLFiUzIS2DZXrTLX4k-63" value="" style="edgeStyle=orthogonalEdgeStyle;rounded=0;orthogonalLoop=1;jettySize=auto;html=1;" parent="1" source="LiLLFiUzIS2DZXrTLX4k-3" target="LiLLFiUzIS2DZXrTLX4k-62" edge="1">
          <mxGeometry relative="1" as="geometry" />
        </mxCell>
        <mxCell id="LiLLFiUzIS2DZXrTLX4k-3" value="fetch reqeust" style="rounded=0;whiteSpace=wrap;html=1;" parent="1" vertex="1">
          <mxGeometry x="260" y="50" width="120" height="60" as="geometry" />
        </mxCell>
        <mxCell id="LiLLFiUzIS2DZXrTLX4k-16" style="edgeStyle=orthogonalEdgeStyle;rounded=0;orthogonalLoop=1;jettySize=auto;html=1;exitX=0.5;exitY=1;exitDx=0;exitDy=0;" parent="1" edge="1">
          <mxGeometry relative="1" as="geometry">
            <mxPoint x="530" y="200" as="targetPoint" />
          </mxGeometry>
        </mxCell>
        <mxCell id="LiLLFiUzIS2DZXrTLX4k-28" style="edgeStyle=orthogonalEdgeStyle;rounded=0;orthogonalLoop=1;jettySize=auto;html=1;entryX=0.5;entryY=0;entryDx=0;entryDy=0;" parent="1" edge="1">
          <mxGeometry relative="1" as="geometry">
            <mxPoint x="470" y="230" as="sourcePoint" />
          </mxGeometry>
        </mxCell>
        <mxCell id="LiLLFiUzIS2DZXrTLX4k-64" value="yes" style="edgeStyle=orthogonalEdgeStyle;rounded=0;orthogonalLoop=1;jettySize=auto;html=1;" parent="1" source="LiLLFiUzIS2DZXrTLX4k-62" target="LiLLFiUzIS2DZXrTLX4k-65" edge="1">
          <mxGeometry x="-0.2302" relative="1" as="geometry">
            <mxPoint x="580" y="260" as="targetPoint" />
            <mxPoint x="-1" as="offset" />
          </mxGeometry>
        </mxCell>
        <mxCell id="LiLLFiUzIS2DZXrTLX4k-92" value="no" style="edgeStyle=orthogonalEdgeStyle;rounded=0;orthogonalLoop=1;jettySize=auto;html=1;" parent="1" source="LiLLFiUzIS2DZXrTLX4k-62" target="LiLLFiUzIS2DZXrTLX4k-91" edge="1">
          <mxGeometry relative="1" as="geometry" />
        </mxCell>
        <mxCell id="LiLLFiUzIS2DZXrTLX4k-62" value="logged in" style="rhombus;whiteSpace=wrap;html=1;rounded=0;" parent="1" vertex="1">
          <mxGeometry x="430" y="130" width="80" height="80" as="geometry" />
        </mxCell>
        <mxCell id="LiLLFiUzIS2DZXrTLX4k-67" value="" style="edgeStyle=orthogonalEdgeStyle;rounded=0;orthogonalLoop=1;jettySize=auto;html=1;" parent="1" source="LiLLFiUzIS2DZXrTLX4k-65" target="LiLLFiUzIS2DZXrTLX4k-78" edge="1">
          <mxGeometry relative="1" as="geometry">
            <mxPoint x="580" y="370" as="targetPoint" />
          </mxGeometry>
        </mxCell>
        <mxCell id="LiLLFiUzIS2DZXrTLX4k-65" value="get the count of unread notifications" style="rounded=0;whiteSpace=wrap;html=1;" parent="1" vertex="1">
          <mxGeometry x="520" y="230" width="120" height="60" as="geometry" />
        </mxCell>
        <mxCell id="LiLLFiUzIS2DZXrTLX4k-82" value="yes" style="edgeStyle=orthogonalEdgeStyle;rounded=0;orthogonalLoop=1;jettySize=auto;html=1;" parent="1" source="LiLLFiUzIS2DZXrTLX4k-78" target="LiLLFiUzIS2DZXrTLX4k-81" edge="1">
          <mxGeometry relative="1" as="geometry" />
        </mxCell>
        <mxCell id="LiLLFiUzIS2DZXrTLX4k-84" value="no" style="edgeStyle=orthogonalEdgeStyle;rounded=0;orthogonalLoop=1;jettySize=auto;html=1;" parent="1" source="LiLLFiUzIS2DZXrTLX4k-78" target="LiLLFiUzIS2DZXrTLX4k-83" edge="1">
          <mxGeometry relative="1" as="geometry" />
        </mxCell>
        <mxCell id="LiLLFiUzIS2DZXrTLX4k-78" value="user is not an analyst" style="rhombus;whiteSpace=wrap;html=1;" parent="1" vertex="1">
          <mxGeometry x="540" y="330" width="110" height="120" as="geometry" />
        </mxCell>
        <mxCell id="LiLLFiUzIS2DZXrTLX4k-85" style="edgeStyle=orthogonalEdgeStyle;rounded=0;orthogonalLoop=1;jettySize=auto;html=1;entryX=0.5;entryY=0;entryDx=0;entryDy=0;" parent="1" source="LiLLFiUzIS2DZXrTLX4k-81" target="LiLLFiUzIS2DZXrTLX4k-2" edge="1">
          <mxGeometry relative="1" as="geometry" />
        </mxCell>
        <mxCell id="LiLLFiUzIS2DZXrTLX4k-81" value="redirect to home page" style="whiteSpace=wrap;html=1;" parent="1" vertex="1">
          <mxGeometry x="690" y="460" width="120" height="60" as="geometry" />
        </mxCell>
        <mxCell id="LiLLFiUzIS2DZXrTLX4k-87" value="" style="edgeStyle=orthogonalEdgeStyle;rounded=0;orthogonalLoop=1;jettySize=auto;html=1;" parent="1" source="LiLLFiUzIS2DZXrTLX4k-83" target="LiLLFiUzIS2DZXrTLX4k-86" edge="1">
          <mxGeometry relative="1" as="geometry" />
        </mxCell>
        <mxCell id="LiLLFiUzIS2DZXrTLX4k-83" value="show all images stored in the leaf table" style="whiteSpace=wrap;html=1;" parent="1" vertex="1">
          <mxGeometry x="370" y="470" width="120" height="60" as="geometry" />
        </mxCell>
        <mxCell id="LiLLFiUzIS2DZXrTLX4k-89" value="" style="edgeStyle=orthogonalEdgeStyle;rounded=0;orthogonalLoop=1;jettySize=auto;html=1;" parent="1" source="LiLLFiUzIS2DZXrTLX4k-86" target="LiLLFiUzIS2DZXrTLX4k-88" edge="1">
          <mxGeometry relative="1" as="geometry" />
        </mxCell>
        <mxCell id="LiLLFiUzIS2DZXrTLX4k-86" value="select correct diagnosis for the leaves" style="whiteSpace=wrap;html=1;" parent="1" vertex="1">
          <mxGeometry x="370" y="560" width="120" height="60" as="geometry" />
        </mxCell>
        <mxCell id="LiLLFiUzIS2DZXrTLX4k-90" style="edgeStyle=orthogonalEdgeStyle;rounded=0;orthogonalLoop=1;jettySize=auto;html=1;" parent="1" source="LiLLFiUzIS2DZXrTLX4k-88" target="LiLLFiUzIS2DZXrTLX4k-2" edge="1">
          <mxGeometry relative="1" as="geometry" />
        </mxCell>
        <mxCell id="LiLLFiUzIS2DZXrTLX4k-88" value="render show all page" style="whiteSpace=wrap;html=1;" parent="1" vertex="1">
          <mxGeometry x="370" y="640" width="120" height="60" as="geometry" />
        </mxCell>
        <mxCell id="LiLLFiUzIS2DZXrTLX4k-93" style="edgeStyle=orthogonalEdgeStyle;rounded=0;orthogonalLoop=1;jettySize=auto;html=1;entryX=0.5;entryY=0;entryDx=0;entryDy=0;" parent="1" source="LiLLFiUzIS2DZXrTLX4k-91" target="LiLLFiUzIS2DZXrTLX4k-2" edge="1">
          <mxGeometry relative="1" as="geometry">
            <Array as="points">
              <mxPoint x="290" y="720" />
              <mxPoint x="580" y="720" />
            </Array>
          </mxGeometry>
        </mxCell>
        <mxCell id="LiLLFiUzIS2DZXrTLX4k-91" value="redirect to login page" style="whiteSpace=wrap;html=1;rounded=0;" parent="1" vertex="1">
          <mxGeometry x="230" y="250" width="120" height="60" as="geometry" />
        </mxCell>
      </root>
    </mxGraphModel>
  </diagram>
</mxfile>
